<svg id="Layer_1" data-name="Layer 1" xmlns="http://www.w3.org/2000/svg" xmlns:xlink="http://www.w3.org/1999/xlink" viewBox="0 0 500 500"><defs><style>.cls-1{fill:url(#linear-gradient);}</style><linearGradient id="linear-gradient" x1="284.76" x2="284.76" y2="499.98" gradientTransform="matrix(1, 0, 0, -1, -28.76, 500)" gradientUnits="userSpaceOnUse"><stop offset="0" stop-color="#ffdd02"/><stop offset="0.4" stop-color="#ee7d24"/><stop offset="0.89" stop-color="#ea492e"/><stop offset="1" stop-color="#df282f"/></linearGradient></defs><title>icon</title><g id="Artwork_glyph" data-name="Artwork glyph"><g id="Uppercase"><path id="M" class="cls-1" d="M132.87,2c29,0,40.16,0,53.42,20.46,21.21,33,29.94,56.83,48.49,91.49a22.73,22.73,0,0,0,32.14-.64h0c.22-.22.43-.45.63-.68C290.67,82.49,348.25,6.34,369.27,2A520.8,520.8,0,0,1,460,2C479,4.65,482.36-.46,482.36,11.09c0,28.42-37.88,15.54-48.49,19,0,120.85,0,303.08-8.34,348.92-3.6,18.94-28.22,23.3-51.32,22.73s-56.84,6.63-55.12-11.74,45.84-2.09,51-34.29c10.61-69.14,9.47-189.43,13.07-274.86,1.33-31.06,0-52.09,0-52.09a115.85,115.85,0,0,0-44.7,36.75C311.5,97.83,260.55,167.73,234.78,198a13.25,13.25,0,0,1-18.55,2.65,13.1,13.1,0,0,1-2.66-2.65c-18.95-37.89-82-159.31-82-159.31s-1.32,201.93-4.16,392.11c0,31.45,40.91,32.77,51.71-5.87,4.36-14.78,6.63-37.89,0-41.67s-13.25-8.26-13.25-22.51,4.93-26.89,23.87-26.89c23.3,0,25.95,22,25.38,66.67s-34.1,72.55-61,88.66a56.84,56.84,0,0,1-65.36.94c-17-10.61-15.34-44.51-14.2-75.77,3-78.61,7-382.45,7-382.45S29.63,38,29.63,20.92C30-4.08,62.4,2.93,132.87,2Z"/></g></g></svg>